<svg version="1.1" id="Layer_1" xmlns="http://www.w3.org/2000/svg" xmlns:xlink="http://www.w3.org/1999/xlink" x="0px" y="0px"
	 width="100%" viewBox="0 0 1024 1024" enable-background="new 0 0 1024 1024" xml:space="preserve">
<path fill="#E0E0E0" opacity="1.000000" stroke="none" 
	d="
M1.000000,345.000000 
	C1.000000,230.405838 1.000000,115.811668 1.000000,1.000000 
	C115.021919,1.000000 229.043976,1.000000 343.532288,1.468657 
	C343.999817,110.865921 343.995880,219.794540 344.041748,328.723114 
	C344.042633,330.804321 344.631927,332.885254 344.961670,335.228943 
	C344.985748,335.666687 344.994843,335.841797 344.646790,336.093018 
	C343.560822,336.169159 342.832062,336.169220 341.659363,336.081604 
	C323.521454,336.188965 305.827209,336.364594 288.133759,336.598999 
	C285.350983,336.635834 282.571686,336.938629 279.527069,337.383484 
	C278.876190,337.963013 278.489044,338.277496 277.988678,338.325745 
	C275.457733,339.803101 273.269623,341.575165 276.989563,344.371338 
	C276.701050,344.776917 276.547607,344.909729 275.901306,345.028076 
	C183.938980,345.009094 92.469490,345.004547 1.000000,345.000000 
z"/>
<path fill="#E0E0E0" opacity="1.000000" stroke="none" 
	d="
M688.000000,1.000000 
	C800.261536,1.000000 912.523132,1.000000 1025.000000,1.000000 
	C1025.000000,115.021919 1025.000000,229.043976 1024.531372,343.533752 
	C914.398743,344.001801 804.734802,344.002380 695.070801,344.001831 
	C688.006592,344.001801 688.001404,343.997772 688.001343,336.991821 
	C688.000000,224.994553 688.000183,112.997276 688.000000,1.000000 
z"/>
<path fill="#E0E0E0" opacity="1.000000" stroke="none" 
	d="
M344.000000,1025.000000 
	C229.739029,1025.000000 115.478065,1025.000000 1.000000,1025.000000 
	C1.000000,910.978088 1.000000,796.955994 1.466985,682.466980 
	C90.621017,682.001587 179.308075,682.003235 267.996826,682.472961 
	C267.999084,727.577759 267.994537,772.214417 268.003143,816.851135 
	C268.005859,830.886047 274.074982,836.988953 288.026703,836.996765 
	C306.680847,837.007263 325.334961,836.995117 343.993073,837.461792 
	C343.998047,900.287292 343.999023,962.643616 344.000000,1025.000000 
z"/>
<path fill="#E0E0E0" opacity="1.000000" stroke="none" 
	d="
M1025.000000,682.000000 
	C1025.000000,796.260315 1025.000000,910.520569 1025.000000,1025.000000 
	C912.978088,1025.000000 800.955994,1025.000000 688.466980,1024.531372 
	C688.002502,961.706848 688.005005,899.351013 688.475403,836.996582 
	C705.581665,836.998230 722.220886,837.095703 738.858154,836.961243 
	C748.489380,836.883362 757.310852,831.297607 757.183716,818.773010 
	C756.720947,773.188599 757.004883,727.596497 757.475525,682.006348 
	C846.962463,682.003662 935.981262,682.001831 1025.000000,682.000000 
z"/>
<path fill="#D9D9D9" opacity="1.000000" stroke="none" 
	d="
M1025.000000,681.531372 
	C935.981262,682.001831 846.962463,682.003662 757.471924,682.002808 
	C757.000122,682.000122 756.995117,681.996033 756.996704,681.527710 
	C756.998901,602.157898 757.019775,523.256348 756.927734,444.354889 
	C756.923950,441.116913 756.357483,437.666748 755.096436,434.725677 
	C754.379944,433.054565 751.718384,432.217468 749.856079,430.550476 
	C749.610107,426.770020 749.440857,423.443909 749.440918,419.757751 
	C748.976257,418.359375 748.342285,417.321045 747.332397,416.146912 
	C740.192322,415.885498 733.428467,415.723724 726.663696,415.642029 
	C713.787781,415.486481 700.911255,415.376709 688.023315,414.763855 
	C688.009338,393.461578 688.005371,372.643341 688.005737,351.825104 
	C688.005859,345.003662 688.010986,344.997314 694.739624,344.997284 
	C804.826416,344.997192 914.913208,344.998779 1025.000000,345.000000 
	C1025.000000,457.020905 1025.000000,569.041809 1025.000000,681.531372 
z"/>
<path fill="#D9D9D9" opacity="1.000000" stroke="none" 
	d="
M345.000000,1.000000 
	C458.688690,1.000000 572.377380,1.000000 686.532349,1.468657 
	C686.998230,113.919662 686.970276,225.902054 687.093872,337.884277 
	C687.099121,342.596497 685.986389,344.203888 681.039551,344.111908 
	C665.047913,343.814606 649.046936,344.021088 633.039001,343.650970 
	C632.758362,341.825989 632.488342,340.383514 632.140869,338.633362 
	C631.267639,336.356689 630.259094,335.090088 627.830261,337.367859 
	C617.286316,337.385651 607.150208,337.203186 596.387268,336.719849 
	C594.872620,336.600708 593.984802,336.782410 592.753052,337.128815 
	C584.633728,337.496918 576.858398,337.700287 569.048279,337.629303 
	C568.648499,337.537750 568.283447,337.720581 567.732849,337.810333 
	C567.547241,337.717255 567.159058,337.569672 567.083435,337.312988 
	C566.618896,337.227417 566.229980,337.398560 565.572083,337.543335 
	C565.170959,337.394470 565.038757,337.272034 564.839355,337.024902 
	C564.451904,336.767059 564.223938,336.850250 563.886230,337.333527 
	C563.502991,337.534821 563.321716,337.552277 563.013916,337.284790 
	C562.211853,337.189789 561.536316,337.379730 560.661011,337.642578 
	C560.461182,337.715454 560.076355,337.896942 559.986816,337.592529 
	C559.239929,337.491058 558.582642,337.693970 557.535034,337.829254 
	C556.135559,337.557159 555.126343,337.352661 554.030518,336.881683 
	C552.348083,336.794922 550.752319,336.974640 548.721313,337.360046 
	C540.881042,337.398224 533.476074,337.230713 525.885132,336.765381 
	C518.973389,335.158813 518.973328,335.158813 518.973145,327.768860 
	C518.972595,302.048737 519.069031,276.327942 518.891235,250.609039 
	C518.854736,245.333832 518.268005,239.799927 511.697693,237.362244 
	C511.588684,232.348633 511.605530,227.766998 511.824738,223.051178 
	C511.745453,222.239532 511.463806,221.562088 511.159058,220.871109 
	C511.135956,220.857574 511.116333,220.807770 510.982483,220.434906 
	C504.681549,219.395569 498.516632,218.176147 492.346954,218.151657 
	C449.744232,217.982544 407.140533,218.050201 364.537170,218.096771 
	C362.237823,218.099289 359.831085,218.277069 357.686829,219.001892 
	C356.659912,219.349014 356.130615,221.168213 355.364838,222.762421 
	C355.283936,227.142685 355.214111,231.081253 354.790741,235.053558 
	C352.929260,236.277771 351.240112,237.301788 349.957062,238.698776 
	C348.157684,240.657913 346.660339,242.894470 345.022400,244.543045 
	C345.007324,163.049164 345.003662,82.024582 345.000000,1.000000 
z"/>
<path fill="#D9D9D9" opacity="1.000000" stroke="none" 
	d="
M267.995117,682.004883 
	C179.308075,682.003235 90.621017,682.001587 1.466985,682.000000 
	C1.000000,569.977966 1.000000,457.955963 1.000000,345.466980 
	C92.469490,345.004547 183.938980,345.009094 276.088928,345.393372 
	C276.853455,348.187347 276.937531,350.601654 276.760559,353.050415 
	C276.316437,353.381134 276.133392,353.677368 275.717712,353.976624 
	C275.485046,353.979645 275.020752,354.010925 274.668030,354.056732 
	C272.577454,356.582336 269.925720,358.854126 269.303497,361.587830 
	C268.213318,366.377686 268.050934,371.450684 268.048004,376.405396 
	C267.987427,478.267792 268.004486,580.130249 268.003479,681.995972 
	C268.000885,681.999268 267.995117,682.004883 267.995117,682.004883 
z"/>
<path fill="#D9D9D9" opacity="1.000000" stroke="none" 
	d="
M687.000000,1025.000000 
	C573.311340,1025.000000 459.622650,1025.000000 345.468231,1024.531372 
	C344.993103,961.055054 344.983704,898.047424 344.984924,835.023926 
	C344.995544,835.008057 345.020386,834.980469 345.486633,834.987000 
	C459.644684,835.004211 573.336487,835.014832 687.024292,835.492554 
	C687.013550,898.973083 687.006775,961.986511 687.000000,1025.000000 
z"/>
<path fill="#EBEBEB" opacity="1.000000" stroke="none" 
	d="
M633.049561,344.033447 
	C649.046936,344.021088 665.047913,343.814606 681.039551,344.111908 
	C685.986389,344.203888 687.099121,342.596497 687.093872,337.884277 
	C686.970276,225.902054 686.998230,113.919662 686.999268,1.468657 
	C687.000000,1.000000 687.500000,1.000000 687.750000,1.000000 
	C688.000183,112.997276 688.000000,224.994553 688.001343,336.991821 
	C688.001404,343.997772 688.006592,344.001801 695.070801,344.001831 
	C804.734802,344.002380 914.398743,344.001801 1024.531372,344.000732 
	C1025.000000,344.000000 1025.000000,344.500000 1025.000000,344.750000 
	C914.913208,344.998779 804.826416,344.997192 694.739624,344.997284 
	C688.010986,344.997314 688.005859,345.003662 688.005737,351.825104 
	C688.005371,372.643341 688.009338,393.461578 687.757935,414.903748 
	C687.327209,415.434845 687.150146,415.341949 686.981934,414.763733 
	C686.992859,393.006226 686.869751,371.732727 687.097961,350.462952 
	C687.146179,345.969147 685.711609,344.850067 681.406555,344.909973 
	C665.289490,345.134216 649.167297,344.988617 633.030762,344.744568 
	C633.014465,344.507477 633.049561,344.033447 633.049561,344.033447 
z"/>
<path fill="#EBEBEB" opacity="1.000000" stroke="none" 
	d="
M344.750000,1.000000 
	C345.003662,82.024582 345.007324,163.049164 345.013763,245.010406 
	C344.993286,275.620148 344.970001,305.293243 344.946716,334.966309 
	C344.631927,332.885254 344.042633,330.804321 344.041748,328.723114 
	C343.995880,219.794540 343.999817,110.865921 343.999268,1.468657 
	C344.000000,1.000000 344.500000,1.000000 344.750000,1.000000 
z"/>
<path fill="#EBEBEB" opacity="1.000000" stroke="none" 
	d="
M344.974304,835.039734 
	C344.983704,898.047424 344.993103,961.055054 345.001251,1024.531372 
	C345.000000,1025.000000 344.500000,1025.000000 344.250000,1025.000000 
	C343.999023,962.643616 343.998047,900.287292 344.025818,837.175354 
	C344.361176,835.959778 344.667725,835.499756 344.974304,835.039734 
z"/>
<path fill="#EBEBEB" opacity="1.000000" stroke="none" 
	d="
M687.250000,1025.000000 
	C687.006775,961.986511 687.013550,898.973083 687.266968,835.481445 
	C687.513611,835.003357 688.000000,834.992676 687.999512,835.326416 
	C688.001892,836.105164 688.004700,836.550171 688.007446,836.995117 
	C688.005005,899.351013 688.002502,961.706848 688.000000,1024.531372 
	C688.000000,1025.000000 687.500000,1025.000000 687.250000,1025.000000 
z"/>
<path fill="#242424" opacity="1.000000" stroke="none" 
	d="
M277.021606,353.015930 
	C276.937531,350.601654 276.853455,348.187347 276.581757,345.407806 
	C276.547607,344.909729 276.701050,344.776917 277.310242,344.146912 
	C277.877991,341.963745 277.989960,340.277863 278.101929,338.591949 
	C278.489044,338.277496 278.876190,337.963013 279.454529,337.783813 
	C279.719757,338.176880 279.793793,338.434692 279.914673,339.184570 
	C279.952515,492.635559 279.943420,645.594421 279.934937,798.553284 
	C279.934509,806.055969 279.936951,806.058044 287.514648,806.058044 
	C437.807648,806.058472 588.100647,806.058411 738.393616,806.058044 
	C746.035767,806.058044 746.037781,806.056091 746.037842,798.628296 
	C746.037964,678.493835 746.032715,558.359436 746.077698,438.224976 
	C746.078430,436.149658 746.684143,434.074524 747.220215,432.019958 
	C747.835449,432.153931 748.238098,432.267181 748.749756,432.770111 
	C749.081055,434.793091 749.303284,436.426422 749.360168,438.499695 
	C749.186707,518.933655 749.177185,598.927612 749.187256,678.921631 
	C749.187378,679.901794 749.439331,680.881958 749.340698,682.216187 
	C749.045471,683.229797 748.928955,683.889343 748.928772,684.548950 
	C748.918030,721.739380 748.911194,758.929749 748.939270,796.120178 
	C748.940247,797.414124 749.300232,798.707825 749.273682,800.391724 
	C748.877808,802.842712 748.701111,804.903564 748.269104,806.915283 
	C747.560181,807.502014 747.106567,808.137878 746.294678,808.895691 
	C744.944824,809.215759 743.953125,809.413940 742.507812,809.487000 
	C723.666565,809.335388 705.279053,809.308777 686.542969,809.099365 
	C685.198975,808.863281 684.203430,808.763611 683.207947,808.763550 
	C571.971436,808.756531 460.734955,808.754761 349.498444,808.778564 
	C348.033508,808.778931 346.568634,809.108093 344.629913,809.274536 
	C340.676483,809.302734 337.196991,809.356079 333.717316,809.374939 
	C316.824371,809.466614 299.931396,809.548950 282.631042,809.515869 
	C281.666718,809.461243 281.109833,809.525452 280.557251,809.628296 
	C280.561584,809.666931 280.583069,809.586914 280.259399,809.385925 
	C279.436951,809.122681 278.938171,809.060364 278.592712,808.803467 
	C278.552612,808.636475 278.359253,808.664124 277.755859,808.224487 
	C276.971069,807.580383 276.596313,807.403503 276.467834,806.903503 
	C276.783661,768.176880 276.858459,729.773438 276.896454,691.369934 
	C276.897583,690.245361 276.510040,689.120422 276.535950,687.614624 
	C276.736664,684.408997 276.677704,681.584412 276.677582,678.759888 
	C276.673248,577.454224 276.679199,476.148621 276.658691,374.842987 
	C276.657837,370.557404 276.418854,366.271851 276.512329,361.639130 
	C276.676941,360.215240 276.620056,359.138550 276.781891,357.847931 
	C277.025696,356.832336 277.050781,356.030609 277.220154,354.967316 
	C277.250122,354.142456 277.135864,353.579193 277.021606,353.015930 
z"/>
<path fill="#D1D1D1" opacity="1.000000" stroke="none" 
	d="
M344.961670,335.228943 
	C344.970001,305.293243 344.993286,275.620148 345.025208,245.479706 
	C346.660339,242.894470 348.157684,240.657913 349.957062,238.698776 
	C351.240112,237.301788 352.929260,236.277771 354.843811,235.485474 
	C355.241791,237.914505 355.233185,239.945389 354.926331,242.211517 
	C353.760223,247.923691 352.200623,253.393311 352.142426,258.878845 
	C351.869537,284.585327 352.009827,310.296204 351.678955,336.056549 
	C350.919220,336.117767 350.483032,336.127930 349.856171,335.886017 
	C348.766510,335.790741 347.867523,335.947540 346.640320,336.111053 
	C345.876068,336.084167 345.440002,336.050537 345.003967,336.016937 
	C344.994843,335.841797 344.985748,335.666687 344.961670,335.228943 
z"/>
<path fill="#B5B5B5" opacity="1.000000" stroke="none" 
	d="
M279.867828,338.692444 
	C279.793793,338.434692 279.719757,338.176880 279.718262,337.518738 
	C282.571686,336.938629 285.350983,336.635834 288.133759,336.598999 
	C305.827209,336.364594 323.521454,336.188965 341.464722,336.273438 
	C341.273346,337.067688 340.832642,337.582458 340.391937,338.097229 
	C340.905975,338.225555 341.419983,338.353882 341.476013,338.394745 
	C330.899963,338.297791 320.781616,338.230743 310.664062,338.294861 
	C300.398224,338.359924 290.133209,338.554565 279.867828,338.692444 
z"/>
<path fill="#7E7E7E" opacity="1.000000" stroke="none" 
	d="
M277.988708,338.325745 
	C277.989960,340.277863 277.877991,341.963745 277.445312,343.874115 
	C273.269623,341.575165 275.457733,339.803101 277.988708,338.325745 
z"/>
<path fill="#7E7E7E" opacity="1.000000" stroke="none" 
	d="
M341.934021,338.482208 
	C341.419983,338.353882 340.905975,338.225555 340.391937,338.097229 
	C340.832642,337.582458 341.273346,337.067688 341.908691,336.361084 
	C342.832062,336.169220 343.560822,336.169159 344.646790,336.093018 
	C345.440002,336.050537 345.876068,336.084167 346.676392,336.352081 
	C347.156250,336.902710 347.174927,337.224670 346.848541,337.751923 
	C346.056061,338.253998 345.511658,338.556396 344.585907,338.820923 
	C343.447723,338.682770 342.690857,338.582489 341.934021,338.482208 
z"/>
<path fill="#D9D9D9" opacity="1.000000" stroke="none" 
	d="
M344.984924,835.023926 
	C344.667725,835.499756 344.361176,835.959778 344.021851,836.706238 
	C325.334961,836.995117 306.680847,837.007263 288.026703,836.996765 
	C274.074982,836.988953 268.005859,830.886047 268.003143,816.851135 
	C267.994537,772.214417 267.999084,727.577759 267.996826,682.472961 
	C267.995117,682.004883 268.000885,681.999268 268.419922,682.002197 
	C273.035187,681.941101 271.963837,685.109497 271.966217,687.368164 
	C272.010498,729.849487 271.997284,772.330811 272.000061,814.812195 
	C272.000916,828.046753 276.890961,832.988098 290.024139,832.996765 
	C308.349426,833.008911 326.674713,832.999939 345.002197,833.330200 
	C345.009766,834.100403 345.015076,834.540466 345.020386,834.980469 
	C345.020386,834.980469 344.995544,835.008057 344.984924,835.023926 
z"/>
<path fill="#D9D9D9" opacity="1.000000" stroke="none" 
	d="
M688.475342,836.996582 
	C688.004700,836.550171 688.001892,836.105164 687.997803,834.994385 
	C687.997681,833.885742 687.998840,833.442871 688.468628,833.000000 
	C705.436768,832.999573 721.936401,833.034790 738.435669,832.983887 
	C746.955383,832.957642 751.817627,829.121155 753.500244,820.779541 
	C754.348267,816.575378 754.922668,812.235779 754.933960,807.955627 
	C755.039978,767.790588 754.971191,727.625061 755.082275,687.460022 
	C755.087341,685.636963 756.329224,683.817261 756.995117,681.996033 
	C756.995117,681.996033 757.000122,682.000122 757.003723,682.003723 
	C757.004883,727.596497 756.720947,773.188599 757.183716,818.773010 
	C757.310852,831.297607 748.489380,836.883362 738.858154,836.961243 
	C722.220886,837.095703 705.581665,836.998230 688.475342,836.996582 
z"/>
<path fill="#010101" opacity="1.000000" stroke="none" 
	d="
M341.476013,338.394745 
	C342.690857,338.582489 343.447723,338.682770 344.876465,339.116882 
	C348.778320,339.585815 352.008331,339.720917 355.317993,340.328613 
	C355.359619,351.860199 355.321503,362.919159 354.793427,373.989594 
	C343.547791,374.010895 332.790924,373.941376 322.037842,374.112579 
	C320.341278,374.139618 318.662109,375.255035 316.642029,376.095856 
	C315.867584,377.525208 315.053619,378.722504 315.042603,379.927185 
	C314.942322,390.901031 314.909515,401.877167 315.069672,412.849518 
	C315.090332,414.264496 316.322540,415.661804 316.993439,417.531738 
	C316.991211,456.661407 316.989075,495.326630 317.043762,534.370972 
	C317.181061,534.992493 317.261505,535.235046 317.274109,535.617920 
	C317.206299,535.758362 317.014404,536.006470 316.620300,536.091064 
	C315.823517,537.861938 315.048218,539.554932 315.078033,541.233643 
	C315.290497,553.198059 315.787354,565.157837 315.957367,577.122498 
	C316.120758,588.618469 315.898285,600.119507 316.024170,611.616394 
	C316.313904,638.078247 316.712280,664.538879 317.041138,691.468018 
	C317.004028,715.710205 317.069733,739.484863 316.909332,763.257935 
	C316.880554,767.530457 318.173706,769.189209 322.606812,769.088745 
	C333.739807,768.836243 344.881683,768.976196 356.486633,768.988586 
	C408.320190,769.052612 459.687103,769.086853 511.369934,769.375610 
	C512.333740,769.745117 512.981628,769.960083 513.629578,769.960632 
	C537.852112,769.979858 562.074707,769.994263 586.297058,769.938049 
	C587.528381,769.935242 588.758240,769.301575 590.319458,768.966431 
	C591.090881,768.960083 591.531616,768.948914 592.443604,768.963928 
	C607.677612,769.320435 622.439026,769.830566 637.203491,769.939148 
	C659.315247,770.101685 681.429199,770.020081 703.541443,769.898560 
	C705.044983,769.890320 706.541931,768.680237 708.063721,767.558960 
	C708.081970,742.059021 708.078308,717.029175 708.081543,691.530884 
	C708.126648,678.735962 708.164795,666.409424 708.453613,654.014282 
	C708.592407,653.300964 708.480530,652.656311 708.332153,651.544739 
	C708.266113,625.444153 708.236572,599.810425 708.303223,573.837952 
	C708.570496,573.065002 708.741455,572.630737 709.232056,572.085327 
	C710.024170,571.019165 710.897705,570.068237 710.907410,569.108704 
	C711.008789,559.055176 711.023926,548.999573 710.896057,538.946716 
	C710.882568,537.891357 709.799255,536.849487 709.068970,535.623901 
	C708.925720,535.446533 708.524597,535.229736 708.605164,534.752380 
	C708.721741,514.629639 708.793030,494.984192 708.773743,475.338837 
	C708.767395,468.857574 708.527222,462.376556 708.344727,455.659546 
	C707.745911,455.183380 707.196350,454.943085 706.177429,454.684631 
	C680.934998,454.635529 656.161987,454.604553 631.085938,454.217285 
	C629.013123,453.595703 627.245544,453.117859 625.473267,453.100006 
	C614.677979,452.990997 603.881531,452.986603 593.033325,452.504089 
	C593.142822,440.180267 593.304504,428.299683 593.629150,415.933411 
	C593.858459,403.638550 594.080383,391.825867 593.819275,380.023895 
	C593.781128,378.298798 591.774475,375.994720 590.076477,375.094330 
	C588.170471,374.083679 585.581421,374.125641 583.288086,374.117371 
	C559.496216,374.031525 535.704102,374.027954 511.860413,373.534973 
	C511.558014,361.795410 511.307190,350.522369 511.446289,338.990051 
	C512.919800,338.184875 514.003418,337.638977 515.379028,337.387421 
	C519.137695,337.475555 522.604431,337.269409 526.071106,337.063232 
	C533.476074,337.230713 540.881042,337.398224 549.048523,337.680908 
	C551.246399,337.580139 552.681824,337.364166 554.117188,337.148193 
	C555.126343,337.352661 556.135559,337.557159 557.871948,338.047089 
	C559.091553,338.187347 559.583984,338.042145 560.076355,337.896942 
	C560.076355,337.896942 560.461182,337.715454 561.009521,337.916138 
	C562.085449,337.934479 562.612976,337.752106 563.140503,337.569763 
	C563.321716,337.552277 563.502991,337.534821 564.090942,337.548889 
	C564.633972,337.436829 564.770264,337.293213 564.906616,337.149567 
	C565.038757,337.272034 565.170959,337.394470 565.901672,337.740845 
	C566.719849,337.833099 566.939453,337.701385 567.159058,337.569672 
	C567.159058,337.569672 567.547241,337.717255 568.024170,337.955688 
	C568.695068,338.097351 568.889038,338.000519 569.083069,337.903656 
	C576.858398,337.700287 584.633728,337.496918 592.969727,337.437225 
	C594.002869,337.758820 594.475342,337.936737 595.059753,338.240387 
	C595.468140,338.281464 595.764526,338.196777 596.373291,337.903900 
	C596.795105,337.470734 596.904602,337.245728 597.014160,337.020691 
	C607.150208,337.203186 617.286316,337.385651 627.809326,337.694458 
	C628.495850,338.139099 628.795349,338.457397 629.042847,339.260193 
	C628.999939,353.377106 629.011475,367.009521 629.017395,380.641937 
	C629.021973,391.115631 628.975098,401.589722 629.066345,412.062622 
	C629.080627,413.697662 628.160156,416.686829 632.340576,415.394409 
	C634.843750,415.382141 636.903687,415.317627 639.414734,415.401611 
	C655.568298,415.449738 671.270691,415.349426 686.973145,415.249084 
	C687.150146,415.341949 687.327209,415.434845 687.769653,415.387817 
	C700.911255,415.376709 713.787781,415.486481 726.663696,415.642029 
	C733.428467,415.723724 740.192322,415.885498 747.208374,416.495178 
	C747.520752,417.957703 747.581177,418.936157 747.450562,420.277863 
	C747.175537,424.427155 747.091553,428.213226 747.007629,431.999298 
	C746.684143,434.074524 746.078430,436.149658 746.077698,438.224976 
	C746.032715,558.359436 746.037964,678.493835 746.037842,798.628296 
	C746.037781,806.056091 746.035767,806.058044 738.393616,806.058044 
	C588.100647,806.058411 437.807648,806.058472 287.514648,806.058044 
	C279.936951,806.058044 279.934509,806.055969 279.934937,798.553284 
	C279.943420,645.594421 279.952515,492.635559 279.914673,339.184570 
	C290.133209,338.554565 300.398224,338.359924 310.664062,338.294861 
	C320.781616,338.230743 330.899963,338.297791 341.476013,338.394745 
z"/>
<path fill="#D1D1D1" opacity="1.000000" stroke="none" 
	d="
M756.996704,681.527710 
	C756.329224,683.817261 755.087341,685.636963 755.082275,687.460022 
	C754.971191,727.625061 755.039978,767.790588 754.933960,807.955627 
	C754.922668,812.235779 754.348267,816.575378 753.500244,820.779541 
	C751.817627,829.121155 746.955383,832.957642 738.435669,832.983887 
	C721.936401,833.034790 705.436768,832.999573 688.582947,832.616028 
	C690.071594,831.821350 691.912354,831.066162 693.757935,831.054382 
	C708.913574,830.957153 724.070312,831.049011 739.226196,830.971924 
	C745.193115,830.941589 749.688477,828.122864 751.130615,822.259338 
	C752.264832,817.647766 754.177429,812.410645 749.941772,807.744934 
	C749.978882,807.318726 750.021973,807.151489 750.309326,806.707031 
	C750.200012,804.287048 749.846497,802.144348 749.492920,800.001648 
	C749.300232,798.707825 748.940247,797.414124 748.939270,796.120178 
	C748.911194,758.929749 748.918030,721.739380 748.928772,684.548950 
	C748.928955,683.889343 749.045471,683.229797 749.786926,682.251343 
	C755.442993,682.197937 753.947144,678.418274 753.949097,675.971985 
	C754.011169,599.201721 754.000244,522.431335 753.998413,445.661011 
	C753.998413,444.495514 754.048767,443.323303 753.945618,442.165833 
	C753.708435,439.503662 752.598938,437.704559 749.525513,438.059723 
	C749.303284,436.426422 749.081055,434.793091 749.116638,432.466675 
	C749.560486,431.517334 749.746582,431.261047 749.932739,431.004761 
	C751.718384,432.217468 754.379944,433.054565 755.096436,434.725677 
	C756.357483,437.666748 756.923950,441.116913 756.927734,444.354889 
	C757.019775,523.256348 756.998901,602.157898 756.996704,681.527710 
z"/>
<path fill="#6D6D6D" opacity="1.000000" stroke="none" 
	d="
M749.856079,430.550476 
	C749.746582,431.261047 749.560486,431.517334 749.007568,432.077026 
	C748.238098,432.267181 747.835449,432.153931 747.220215,432.019958 
	C747.091553,428.213226 747.175537,424.427155 747.725403,420.298340 
	C748.551453,420.009674 748.911499,420.063721 749.271606,420.117767 
	C749.440857,423.443909 749.610107,426.770020 749.856079,430.550476 
z"/>
<path fill="#7E7E7E" opacity="1.000000" stroke="none" 
	d="
M749.440918,419.757751 
	C748.911499,420.063721 748.551453,420.009674 747.916504,419.935120 
	C747.581177,418.936157 747.520752,417.957703 747.584229,416.630981 
	C748.342285,417.321045 748.976257,418.359375 749.440918,419.757751 
z"/>
<path fill="#747192" opacity="1.000000" stroke="none" 
	d="
M355.283417,373.978149 
	C355.321503,362.919159 355.359619,351.860199 355.326935,340.017303 
	C355.141663,338.833466 355.027161,338.433533 355.157837,337.851379 
	C355.585510,337.096741 355.768005,336.524353 355.935669,335.486450 
	C355.928070,305.614929 355.946594,276.208893 355.911865,246.802902 
	C355.909943,245.193756 355.463898,243.585144 355.224579,241.976273 
	C355.233185,239.945389 355.241791,237.914505 355.197357,235.451721 
	C355.214111,231.081253 355.283936,227.142685 355.718323,222.582794 
	C358.351776,221.638260 360.620148,221.037704 362.889587,221.033585 
	C396.163513,220.972992 429.437592,221.011169 462.711578,220.983612 
	C478.846527,220.970245 494.981415,220.869141 511.116333,220.807770 
	C511.116333,220.807770 511.135956,220.857574 511.129578,221.269836 
	C511.289612,222.183182 511.455994,222.684280 511.622375,223.185379 
	C511.605530,227.766998 511.588684,232.348633 511.495972,237.767273 
	C511.461609,240.063889 511.503052,241.523453 511.406616,243.435532 
	C511.227478,258.541168 511.178894,273.194275 511.146729,287.847443 
	C511.109131,304.981415 511.085876,322.115387 511.056396,339.249359 
	C511.307190,350.522369 511.558014,361.795410 511.662476,373.732666 
	C511.438904,374.947083 511.361664,375.497223 510.789062,376.033295 
	C458.793121,376.018463 407.292603,376.017700 355.802551,375.742859 
	C355.636536,374.971893 355.459961,374.475037 355.283417,373.978149 
M472.994263,264.755402 
	C473.516296,260.749146 472.003082,259.116028 467.735077,259.145294 
	C445.084869,259.300751 422.432739,259.279968 399.782043,259.163666 
	C395.505920,259.141724 394.005615,260.625366 394.038727,265.009796 
	C394.207092,287.326538 394.191132,309.646240 393.996246,331.962799 
	C393.956665,336.494965 395.337158,338.115936 399.981415,338.077881 
	C422.298096,337.894989 444.618164,337.877777 466.934387,338.087311 
	C471.862427,338.133575 473.181702,336.337616 473.137787,331.658722 
	C472.931549,309.675476 473.014801,287.689514 472.994263,264.755402 
z"/>
<path fill="#BFBFBF" opacity="1.000000" stroke="none" 
	d="
M511.544495,242.983032 
	C511.503052,241.523453 511.461609,240.063889 511.621857,238.199280 
	C518.268005,239.799927 518.854736,245.333832 518.891235,250.609039 
	C519.069031,276.327942 518.972595,302.048737 518.973145,327.768860 
	C518.973328,335.158813 518.973389,335.158813 525.885132,336.765381 
	C522.604431,337.269409 519.137695,337.475555 515.342529,337.117523 
	C514.342102,334.262482 513.097107,331.974579 513.085510,329.680420 
	C512.948425,302.580475 513.023254,275.479523 512.932251,248.379227 
	C512.926208,246.578964 512.027832,244.781693 511.544495,242.983032 
z"/>
<path fill="#B5B5B5" opacity="1.000000" stroke="none" 
	d="
M510.982483,220.434906 
	C494.981415,220.869141 478.846527,220.970245 462.711578,220.983612 
	C429.437592,221.011169 396.163513,220.972992 362.889587,221.033585 
	C360.620148,221.037704 358.351776,221.638260 355.729431,222.141083 
	C356.130615,221.168213 356.659912,219.349014 357.686829,219.001892 
	C359.831085,218.277069 362.237823,218.099289 364.537170,218.096771 
	C407.140533,218.050201 449.744232,217.982544 492.346954,218.151657 
	C498.516632,218.176147 504.681549,219.395569 510.982483,220.434906 
z"/>
<path fill="#BFBFBF" opacity="1.000000" stroke="none" 
	d="
M633.039001,343.650970 
	C633.049561,344.033447 633.014465,344.507477 633.016724,345.203308 
	C633.044495,349.247559 633.070129,352.596008 633.047913,356.224060 
	C632.973999,356.690979 632.947876,356.878265 632.625610,357.040405 
	C631.931763,357.002533 631.533997,356.989746 631.072754,356.514160 
	C630.876160,350.656464 630.743164,345.261566 630.671875,339.652466 
	C630.733582,339.438263 630.908081,339.027985 631.236084,339.012421 
	C631.782104,338.978241 632.000244,338.959625 632.218323,338.941010 
	C632.488342,340.383514 632.758362,341.825989 633.039001,343.650970 
z"/>
<path fill="#B5B5B5" opacity="1.000000" stroke="none" 
	d="
M632.140869,338.633362 
	C632.000244,338.959625 631.782104,338.978241 631.031738,339.010925 
	C630.499390,339.025024 630.129272,339.198303 629.924683,338.960510 
	C629.511658,338.740356 629.303284,338.758057 629.094910,338.775726 
	C628.795349,338.457397 628.495850,338.139099 628.217224,337.494171 
	C630.259094,335.090088 631.267639,336.356689 632.140869,338.633362 
z"/>
<path fill="#B5B5B5" opacity="1.000000" stroke="none" 
	d="
M554.030518,336.881714 
	C552.681824,337.364166 551.246399,337.580139 549.483765,337.475220 
	C550.752319,336.974640 552.348083,336.794922 554.030518,336.881714 
z"/>
<path fill="#B5B5B5" opacity="1.000000" stroke="none" 
	d="
M511.824768,223.051178 
	C511.455994,222.684280 511.289612,222.183182 511.152679,221.283371 
	C511.463806,221.562088 511.745453,222.239532 511.824768,223.051178 
z"/>
<path fill="#B5B5B5" opacity="1.000000" stroke="none" 
	d="
M596.387268,336.719849 
	C596.904602,337.245728 596.795105,337.470734 596.093994,337.720734 
	C595.317444,337.868744 595.132629,337.991699 594.947815,338.114624 
	C594.475342,337.936737 594.002869,337.758820 593.313721,337.272491 
	C593.984802,336.782410 594.872620,336.600708 596.387268,336.719849 
z"/>
<path fill="#4A485B" opacity="1.000000" stroke="none" 
	d="
M559.986816,337.592529 
	C559.583984,338.042145 559.091553,338.187347 558.262207,338.114716 
	C558.582642,337.693970 559.239929,337.491058 559.986816,337.592529 
z"/>
<path fill="#7E7E7E" opacity="1.000000" stroke="none" 
	d="
M563.013916,337.284790 
	C562.612976,337.752106 562.085449,337.934479 561.209351,337.843262 
	C561.536316,337.379730 562.211853,337.189789 563.013916,337.284790 
z"/>
<path fill="#B5B5B5" opacity="1.000000" stroke="none" 
	d="
M564.839355,337.024902 
	C564.770264,337.293213 564.633972,337.436829 564.292969,337.365112 
	C564.223938,336.850250 564.451904,336.767059 564.839355,337.024902 
z"/>
<path fill="#7E7E7E" opacity="1.000000" stroke="none" 
	d="
M567.083435,337.312988 
	C566.939453,337.701385 566.719849,337.833099 566.170654,337.767242 
	C566.229980,337.398560 566.618896,337.227417 567.083435,337.312988 
z"/>
<path fill="#4A485B" opacity="1.000000" stroke="none" 
	d="
M569.048279,337.629303 
	C568.889038,338.000519 568.695068,338.097351 568.209778,338.048767 
	C568.283447,337.720581 568.648499,337.537750 569.048279,337.629303 
z"/>
<path fill="#D1D1D1" opacity="1.000000" stroke="none" 
	d="
M345.000000,833.000000 
	C326.674713,832.999939 308.349426,833.008911 290.024139,832.996765 
	C276.890961,832.988098 272.000916,828.046753 272.000061,814.812195 
	C271.997284,772.330811 272.010498,729.849487 271.966217,687.368164 
	C271.963837,685.109497 273.035187,681.941101 268.422546,681.998901 
	C268.004486,580.130249 267.987427,478.267792 268.048004,376.405396 
	C268.050934,371.450684 268.213318,366.377686 269.303497,361.587830 
	C269.925720,358.854126 272.577454,356.582336 274.675873,354.406464 
	C275.545319,355.827545 276.054260,356.944672 276.563171,358.061829 
	C276.620056,359.138550 276.676941,360.215240 276.187134,361.740112 
	C274.759155,364.270447 273.109467,366.351685 273.106903,368.434967 
	C272.980988,471.132996 272.960876,573.831238 273.135925,676.529114 
	C273.142426,680.353088 275.201263,684.173584 276.303650,687.995667 
	C276.510040,689.120422 276.897583,690.245361 276.896454,691.369934 
	C276.858459,729.773438 276.783661,768.176880 276.234253,807.152527 
	C276.064728,812.910095 275.749847,818.248718 276.966064,823.212219 
	C277.521149,825.477600 280.827728,827.699219 283.372528,828.682251 
	C286.352325,829.833313 289.859467,829.912720 293.141724,829.937256 
	C308.574554,830.052368 324.010284,830.090271 339.440460,829.858032 
	C341.306671,829.829895 343.145752,827.999817 344.998688,827.002441 
	C345.000000,827.000000 344.996338,827.002441 344.994934,827.373291 
	C345.004242,828.484802 345.014923,829.225525 345.018921,830.345337 
	C345.008148,831.483032 345.004059,832.241516 345.000000,833.000000 
z"/>
<path fill="#B5B5B5" opacity="1.000000" stroke="none" 
	d="
M276.781891,357.847931 
	C276.054260,356.944672 275.545319,355.827545 275.028564,354.360657 
	C275.020752,354.010925 275.485046,353.979645 275.959656,354.325928 
	C276.648163,354.857819 276.862030,355.043365 277.075897,355.228912 
	C277.050781,356.030609 277.025696,356.832336 276.781891,357.847931 
z"/>
<path fill="#7E7E7E" opacity="1.000000" stroke="none" 
	d="
M277.220154,354.967316 
	C276.862030,355.043365 276.648163,354.857819 276.192322,354.322937 
	C276.133392,353.677368 276.316437,353.381134 276.760559,353.050415 
	C277.135864,353.579193 277.250122,354.142456 277.220154,354.967316 
z"/>
<path fill="#CCCCCC" opacity="1.000000" stroke="none" 
	d="
M345.002197,833.330200 
	C345.004059,832.241516 345.008148,831.483032 345.484589,830.357422 
	C457.642151,829.993530 569.327332,829.996826 681.012512,829.998535 
	C682.177429,829.998535 683.544373,830.354370 684.454407,829.867004 
	C685.510681,829.301208 686.165894,827.986633 687.111938,826.794678 
	C687.425842,826.341064 687.672119,826.154846 688.003906,826.438110 
	C689.464478,827.560303 690.882385,828.886780 692.314087,828.901855 
	C706.902100,829.054993 721.492615,829.044189 736.081848,828.970947 
	C742.369690,828.939392 748.097351,825.701111 748.802917,821.480835 
	C749.505371,817.279114 749.506348,812.960144 749.813843,808.513794 
	C749.812805,808.335022 749.947815,808.003906 749.947815,808.003906 
	C754.177429,812.410645 752.264832,817.647766 751.130615,822.259338 
	C749.688477,828.122864 745.193115,830.941589 739.226196,830.971924 
	C724.070312,831.049011 708.913574,830.957153 693.757935,831.054382 
	C691.912354,831.066162 690.071594,831.821350 688.114258,832.616028 
	C687.998840,833.442871 687.997681,833.885742 687.998291,834.660645 
	C688.000000,834.992676 687.513611,835.003357 687.270935,835.014404 
	C573.336487,835.014832 459.644684,835.004211 345.486633,834.987000 
	C345.015076,834.540466 345.009766,834.100403 345.002197,833.330200 
z"/>
<path fill="#E0E0E0" opacity="1.000000" stroke="none" 
	d="
M633.095703,355.944458 
	C633.070129,352.596008 633.044495,349.247559 633.032959,345.440399 
	C649.167297,344.988617 665.289490,345.134216 681.406555,344.909973 
	C685.711609,344.850067 687.146179,345.969147 687.097961,350.462952 
	C686.869751,371.732727 686.992859,393.006226 686.981934,414.763763 
	C671.270691,415.349426 655.568298,415.449738 639.413696,414.962524 
	C638.640991,410.939453 638.074585,407.506042 638.044067,404.067871 
	C637.932495,391.497986 638.086670,378.925507 637.949280,366.356110 
	C637.904785,362.283508 637.773743,357.981323 633.095703,355.944458 
z"/>
<path fill="#ABABAB" opacity="1.000000" stroke="none" 
	d="
M686.891479,809.282227 
	C705.279053,809.308777 723.666565,809.335388 742.519836,809.949097 
	C743.001038,819.243469 742.030029,820.909302 733.632080,822.200806 
	C716.619202,824.817322 699.208252,820.759949 682.254639,824.997559 
	C569.846863,824.990356 457.439056,824.983154 345.022095,824.648682 
	C345.006256,823.884888 344.999542,823.448242 344.998383,822.673645 
	C345.011078,821.885071 345.018250,821.434570 345.491455,820.989075 
	C456.355865,820.995972 566.754272,821.024719 677.152649,820.956116 
	C687.699890,820.949585 687.193298,823.441895 686.906006,810.410278 
	C686.920715,809.783691 686.906067,809.532898 686.891479,809.282227 
z"/>
<path fill="#CCCCCC" opacity="1.000000" stroke="none" 
	d="
M276.535919,687.614624 
	C275.201263,684.173584 273.142426,680.353088 273.135925,676.529114 
	C272.960876,573.831238 272.980988,471.132996 273.106903,368.434967 
	C273.109467,366.351685 274.759155,364.270447 275.965607,362.087280 
	C276.418854,366.271851 276.657837,370.557404 276.658691,374.842987 
	C276.679199,476.148621 276.673248,577.454224 276.677582,678.759888 
	C276.677704,681.584412 276.736664,684.408997 276.535919,687.614624 
z"/>
<path fill="#CCCCCC" opacity="1.000000" stroke="none" 
	d="
M749.360168,438.499695 
	C752.598938,437.704559 753.708435,439.503662 753.945618,442.165833 
	C754.048767,443.323303 753.998413,444.495514 753.998413,445.661011 
	C754.000244,522.431335 754.011169,599.201721 753.949097,675.971985 
	C753.947144,678.418274 755.442993,682.197937 750.020020,681.897339 
	C749.439331,680.881958 749.187378,679.901794 749.187256,678.921631 
	C749.177185,598.927612 749.186707,518.933655 749.360168,438.499695 
z"/>
<path fill="#B5B5B5" opacity="1.000000" stroke="none" 
	d="
M345.031250,824.975891 
	C457.439056,824.983154 569.846863,824.990356 682.254639,824.997559 
	C699.208252,820.759949 716.619202,824.817322 733.632080,822.200806 
	C742.030029,820.909302 743.001038,819.243469 742.973511,810.074158 
	C743.953125,809.413940 744.944824,809.215759 746.356689,809.215332 
	C746.848877,809.615662 746.920898,809.818420 746.995605,810.455688 
	C746.919495,823.233765 744.138855,825.983459 731.720154,825.997375 
	C730.560059,825.998657 729.399902,825.996643 728.239807,825.997620 
	C714.815735,826.009460 701.391724,826.021667 687.967651,826.033752 
	C687.672119,826.154846 687.425842,826.341064 686.643860,826.796265 
	C572.371399,827.000977 458.683868,827.001709 344.996338,827.002441 
	C344.996338,827.002441 345.000000,827.000000 345.003357,826.664307 
	C345.014923,825.877686 345.023071,825.426819 345.031250,824.975891 
z"/>
<path fill="#ABABAB" opacity="1.000000" stroke="none" 
	d="
M283.038422,809.634644 
	C299.931396,809.548950 316.824371,809.466614 333.717316,809.374939 
	C337.196991,809.356079 340.676483,809.302734 344.595398,809.682068 
	C345.040649,810.370178 345.046570,810.641541 344.778656,811.232422 
	C344.337860,812.856201 344.054047,814.157959 344.023682,815.465454 
	C343.872162,821.991577 343.895599,821.998962 337.468964,822.001038 
	C323.481171,822.005554 309.493317,822.016235 295.505554,821.997498 
	C285.671204,821.984375 282.950592,819.265625 283.038422,809.634644 
z"/>
<path fill="#7E7E7E" opacity="1.000000" stroke="none" 
	d="
M345.052490,810.912964 
	C345.046570,810.641541 345.040649,810.370178 345.069244,809.691284 
	C346.568634,809.108093 348.033508,808.778931 349.498444,808.778564 
	C460.734955,808.754761 571.971436,808.756531 683.207947,808.763550 
	C684.203430,808.763611 685.198975,808.863281 686.542969,809.099365 
	C686.906067,809.532898 686.920715,809.783691 686.451416,810.450745 
	C572.338135,810.884583 458.708832,810.902222 345.069122,810.914978 
	C345.058746,810.910156 345.052490,810.912964 345.052490,810.912964 
z"/>
<path fill="#BFBFBF" opacity="1.000000" stroke="none" 
	d="
M345.022095,824.648682 
	C345.023071,825.426819 345.014923,825.877686 345.002075,826.666748 
	C343.145752,827.999817 341.306671,829.829895 339.440460,829.858032 
	C324.010284,830.090271 308.574554,830.052368 293.141724,829.937256 
	C289.859467,829.912720 286.352325,829.833313 283.372528,828.682251 
	C280.827728,827.699219 277.521149,825.477600 276.966064,823.212219 
	C275.749847,818.248718 276.064728,812.910095 275.987976,807.475647 
	C276.596313,807.403503 276.971069,807.580383 277.786072,808.246338 
	C278.226257,808.735352 278.439423,808.998108 278.439423,808.998047 
	C278.938171,809.060364 279.436951,809.122681 280.059631,809.710083 
	C280.137451,810.484497 280.091370,810.733643 279.774963,811.270874 
	C278.337708,818.664490 280.529694,823.483643 285.865662,824.691284 
	C289.224762,825.451477 292.723114,825.907837 296.164215,825.939819 
	C310.590881,826.074219 325.021362,826.104675 339.445312,825.865295 
	C341.309784,825.834351 343.144409,824.006897 344.992859,823.011719 
	C344.999542,823.448242 345.006256,823.884888 345.022095,824.648682 
z"/>
<path fill="#B5B5B5" opacity="1.000000" stroke="none" 
	d="
M344.998413,822.673706 
	C343.144409,824.006897 341.309784,825.834351 339.445312,825.865295 
	C325.021362,826.104675 310.590881,826.074219 296.164215,825.939819 
	C292.723114,825.907837 289.224762,825.451477 285.865662,824.691284 
	C280.529694,823.483643 278.337708,818.664490 279.998596,811.103577 
	C280.512634,810.295349 280.532776,809.942505 280.552917,809.589661 
	C281.109833,809.525452 281.666718,809.461243 282.631042,809.515869 
	C282.950592,819.265625 285.671204,821.984375 295.505554,821.997498 
	C309.493317,822.016235 323.481171,822.005554 337.468964,822.001038 
	C343.895599,821.998962 343.872162,821.991577 344.023682,815.465454 
	C344.054047,814.157959 344.337860,812.856201 344.778656,811.232422 
	C345.052490,810.912964 345.058746,810.910156 345.040771,811.376831 
	C345.023682,814.890320 345.024536,817.937134 345.025421,820.984009 
	C345.018250,821.434570 345.011078,821.885071 344.998413,822.673706 
z"/>
<path fill="#CCCCCC" opacity="1.000000" stroke="none" 
	d="
M749.273682,800.391724 
	C749.846497,802.144348 750.200012,804.287048 749.924561,806.659180 
	C749.038513,806.913879 748.781433,806.939148 748.524414,806.964478 
	C748.701111,804.903564 748.877808,802.842712 749.273682,800.391724 
z"/>
<path fill="#7E7E7E" opacity="1.000000" stroke="none" 
	d="
M748.269104,806.915283 
	C748.781433,806.939148 749.038513,806.913879 749.680298,806.936401 
	C750.021973,807.151489 749.978882,807.318726 749.941772,807.744934 
	C749.947815,808.003906 749.812805,808.335022 749.545776,808.678711 
	C748.516846,809.355347 747.754883,809.688293 746.992920,810.021179 
	C746.920898,809.818420 746.848877,809.615662 746.714966,809.093384 
	C747.106567,808.137878 747.560181,807.502014 748.269104,806.915283 
z"/>
<path fill="#B5B5B5" opacity="1.000000" stroke="none" 
	d="
M278.592712,808.803467 
	C278.439423,808.998108 278.226257,808.735352 278.196045,808.713501 
	C278.359253,808.664124 278.552612,808.636475 278.592712,808.803467 
z"/>
<path fill="#7E7E7E" opacity="1.000000" stroke="none" 
	d="
M280.557251,809.628296 
	C280.532776,809.942505 280.512634,810.295349 280.268921,810.815552 
	C280.091370,810.733643 280.137451,810.484497 280.383301,809.911133 
	C280.583069,809.586914 280.561584,809.666931 280.557251,809.628296 
z"/>
<path fill="#B5B5B5" opacity="1.000000" stroke="none" 
	d="
M354.926331,242.211517 
	C355.463898,243.585144 355.909943,245.193756 355.911865,246.802902 
	C355.946594,276.208893 355.928070,305.614929 355.542664,335.534302 
	C354.110535,336.033600 353.056519,336.019531 352.002533,336.005493 
	C352.009827,310.296204 351.869537,284.585327 352.142426,258.878845 
	C352.200623,253.393311 353.760223,247.923691 354.926331,242.211517 
z"/>
<path fill="#6D6D6D" opacity="1.000000" stroke="none" 
	d="
M351.678955,336.056549 
	C353.056519,336.019531 354.110535,336.033600 355.557495,335.999817 
	C355.768005,336.524353 355.585510,337.096741 354.730896,337.889618 
	C352.645599,337.948975 351.232452,337.787811 349.817749,337.373291 
	C349.893066,336.792633 349.969971,336.465332 350.046844,336.138062 
	C350.483032,336.127930 350.919220,336.117767 351.678955,336.056549 
z"/>
<path fill="#B5B5B5" opacity="1.000000" stroke="none" 
	d="
M349.856171,335.885986 
	C349.969971,336.465332 349.893066,336.792633 349.477325,337.400238 
	C348.457855,337.637787 347.777252,337.595001 347.096649,337.552216 
	C347.174927,337.224670 347.156250,336.902710 347.004608,336.345367 
	C347.867523,335.947540 348.766510,335.790741 349.856171,335.885986 
z"/>
<path fill="#242424" opacity="1.000000" stroke="none" 
	d="
M346.848541,337.751923 
	C347.777252,337.595001 348.457855,337.637787 349.478882,337.653625 
	C351.232452,337.787811 352.645599,337.948975 354.485718,338.071838 
	C355.027161,338.433533 355.141663,338.833466 355.247253,339.544708 
	C352.008331,339.720917 348.778320,339.585815 345.257812,339.154724 
	C345.511658,338.556396 346.056061,338.253998 346.848541,337.751923 
z"/>
<path fill="#222034" opacity="1.000000" stroke="none" 
	d="
M317.341949,535.477539 
	C317.261505,535.235046 317.181061,534.992493 317.429077,534.206909 
	C319.556061,533.443420 321.353302,533.045837 323.153351,533.032349 
	C331.983215,532.966187 340.813873,533.015686 349.644196,532.997314 
	C355.864136,532.984375 355.986237,532.863403 355.986328,526.446960 
	C355.986786,489.459503 355.975159,452.472015 356.182251,415.081787 
	C356.568085,403.871399 356.838043,393.063843 356.850433,382.256012 
	C356.854126,379.022156 357.925232,377.895264 361.186554,377.902588 
	C411.345459,378.014923 461.504578,378.034485 511.704071,378.537720 
	C511.891022,391.337982 512.037537,403.676117 511.921997,416.327515 
	C511.546448,418.625763 511.335602,420.610657 511.333923,422.595734 
	C511.302643,459.750946 511.296204,496.906189 510.791382,534.051392 
	C460.722198,534.039001 411.146179,534.022888 361.570282,534.087219 
	C359.718201,534.089600 357.867065,534.873779 355.598022,535.295593 
	C342.567688,535.357605 329.954803,535.417542 317.341949,535.477539 
z"/>
<path fill="#747192" opacity="1.000000" stroke="none" 
	d="
M511.284546,534.061401 
	C511.296204,496.906189 511.302643,459.750946 511.333923,422.595734 
	C511.335602,420.610657 511.546448,418.625763 512.375000,416.295380 
	C538.735779,415.976532 564.381470,416.003082 590.044067,416.496216 
	C590.710144,431.998962 591.802673,447.031677 591.919556,462.072021 
	C592.195862,497.637482 592.022583,533.206604 591.965759,568.774170 
	C591.963013,570.515015 591.338745,572.254761 590.534912,574.004395 
	C501.506592,574.021118 412.947205,574.023804 324.387817,574.064392 
	C322.270020,574.065369 320.152435,574.488953 317.806366,574.399170 
	C317.430725,572.287415 317.167999,570.492859 317.155029,568.696472 
	C317.076538,557.799988 317.054962,546.903198 317.014404,536.006470 
	C317.014404,536.006470 317.206299,535.758362 317.274109,535.617920 
	C329.954803,535.417542 342.567688,535.357605 355.940582,535.510132 
	C357.688660,535.819702 358.676666,536.001221 359.664734,536.001465 
	C408.936340,536.015198 458.207977,536.015320 507.479584,536.002197 
	C508.634399,536.001892 509.809204,535.924377 510.927216,535.672302 
	C511.155792,535.620850 511.170990,534.623047 511.284546,534.061401 
z"/>
<path fill="#2E80E2" opacity="1.000000" stroke="none" 
	d="
M631.388977,454.573578 
	C656.161987,454.604553 680.934998,454.635529 706.064758,454.998688 
	C707.078979,455.519073 707.736450,455.707245 708.393921,455.895416 
	C708.527222,462.376556 708.767395,468.857574 708.773743,475.338837 
	C708.793030,494.984192 708.721741,514.629639 708.145386,534.713501 
	C703.469727,535.390076 699.335144,535.817749 695.199036,535.834229 
	C674.412354,535.917175 653.625366,535.892578 632.733887,535.508789 
	C632.356201,533.483032 631.848755,531.854736 631.845093,530.225342 
	C631.792725,507.073456 631.814270,483.921448 631.797485,460.769470 
	C631.796082,458.841644 631.646667,456.913910 631.589539,454.853943 
	C631.613037,454.721710 631.388977,454.573578 631.388977,454.573578 
z"/>
<path fill="#124A8D" opacity="1.000000" stroke="none" 
	d="
M511.054016,769.121033 
	C459.687103,769.086853 408.320190,769.052612 356.463623,768.572510 
	C355.836609,755.041260 355.699280,741.955872 355.910950,729.004761 
	C357.872864,729.433167 359.485657,729.983337 361.098724,729.984192 
	C411.172089,730.009399 461.245514,729.980957 511.511536,730.325073 
	C511.785095,743.117859 511.865997,755.546204 511.733887,768.110718 
	C511.365234,768.538269 511.209625,768.829651 511.054016,769.121033 
z"/>
<path fill="#1E1B39" opacity="1.000000" stroke="none" 
	d="
M511.946930,767.974609 
	C511.865997,755.546204 511.785095,743.117859 511.505981,729.859619 
	C511.594421,716.670166 511.881042,704.310486 512.621033,691.966431 
	C536.936707,691.987976 560.799133,692.022888 584.661255,691.956177 
	C587.105103,691.949341 589.547302,691.334106 591.993103,691.469788 
	C591.988098,717.604858 591.980225,743.271301 591.972351,768.937805 
	C591.531616,768.948914 591.090881,768.960083 590.002686,768.701660 
	C587.544556,768.288086 585.734009,768.021301 583.923096,768.018555 
	C559.931030,767.982300 535.938965,767.983093 511.946930,767.974609 
z"/>
<path fill="#3E3D4F" opacity="1.000000" stroke="none" 
	d="
M708.207031,574.176697 
	C708.236572,599.810425 708.266113,625.444153 708.234863,651.531372 
	C708.174133,651.984863 707.977905,651.980408 707.511658,651.983521 
	C684.286682,651.987915 661.528015,651.993652 638.769287,651.987488 
	C632.070862,651.985718 631.995728,651.913757 631.988464,645.398621 
	C631.961853,621.643433 631.947449,597.888306 631.935669,574.093384 
	C631.942749,574.053711 631.965210,573.976196 632.437134,573.988770 
	C658.008362,574.059814 683.107666,574.118286 708.207031,574.176697 
z"/>
<path fill="#1E1B39" opacity="1.000000" stroke="none" 
	d="
M708.074707,691.999390 
	C708.078308,717.029175 708.081970,742.059021 707.590698,767.548645 
	C683.990112,768.005676 660.884460,768.007874 637.778748,767.996643 
	C631.513123,767.993530 631.017883,767.520081 631.011108,761.143188 
	C630.988892,740.032227 630.976746,718.921143 631.045837,697.810364 
	C631.052185,695.871765 631.665833,693.935120 632.466492,691.998291 
	C657.981873,691.999146 683.028259,691.999268 708.074707,691.999390 
z"/>
<path fill="#525069" opacity="1.000000" stroke="none" 
	d="
M631.566040,454.986145 
	C631.646667,456.913910 631.796082,458.841644 631.797485,460.769470 
	C631.814270,483.921448 631.792725,507.073456 631.845093,530.225342 
	C631.848755,531.854736 632.356201,533.483032 632.482666,535.844666 
	C632.212402,549.043762 632.088806,561.509949 631.965210,573.976196 
	C631.965210,573.976196 631.942749,574.053711 631.475586,574.056396 
	C617.672974,574.396912 604.337402,574.734741 590.999634,574.803223 
	C590.999512,574.354248 591.001709,574.174683 591.003906,573.995056 
	C591.338745,572.254761 591.963013,570.515015 591.965759,568.774170 
	C592.022583,533.206604 592.195862,497.637482 591.919556,462.072021 
	C591.802673,447.031677 590.710144,431.998962 590.327637,416.451660 
	C590.784546,415.961639 590.974854,415.982727 591.463989,415.973694 
	C592.330505,416.102081 592.898376,416.260590 593.466187,416.419098 
	C593.304504,428.299683 593.142822,440.180267 593.058655,452.895081 
	C594.291931,454.448883 595.455261,455.803711 596.602173,455.789948 
	C608.258301,455.649963 619.911804,455.286774 631.566040,454.986145 
z"/>
<path fill="#171527" opacity="1.000000" stroke="none" 
	d="
M631.997559,691.997559 
	C631.665833,693.935120 631.052185,695.871765 631.045837,697.810364 
	C630.976746,718.921143 630.988892,740.032227 631.011108,761.143188 
	C631.017883,767.520081 631.513123,767.993530 637.778748,767.996643 
	C660.884460,768.007874 683.990112,768.005676 707.568848,768.018799 
	C706.541931,768.680237 705.044983,769.890320 703.541443,769.898560 
	C681.429199,770.020081 659.315247,770.101685 637.203491,769.939148 
	C622.439026,769.830566 607.677612,769.320435 592.443604,768.963928 
	C591.980225,743.271301 591.988098,717.604858 591.996399,691.000977 
	C591.995422,678.040710 591.994080,666.017944 591.996338,653.997559 
	C592.000000,654.000000 591.995117,653.992859 592.409180,653.932129 
	C605.552979,653.906799 618.282654,653.942322 631.008606,653.984741 
	C631.004822,653.991638 631.024231,653.985352 631.081543,654.399963 
	C631.424255,657.273499 631.932434,659.730286 631.955994,662.191711 
	C632.051086,672.126221 631.996704,682.062134 631.997559,691.997559 
z"/>
<path fill="#131122" opacity="1.000000" stroke="none" 
	d="
M355.967651,415.484558 
	C355.975159,452.472015 355.986786,489.459503 355.986328,526.446960 
	C355.986237,532.863403 355.864136,532.984375 349.644196,532.997314 
	C340.813873,533.015686 331.983215,532.966187 323.153351,533.032349 
	C321.353302,533.045837 319.556061,533.443420 317.372223,533.827881 
	C316.989075,495.326630 316.991211,456.661407 317.007568,417.187805 
	C317.014557,415.922333 317.007324,415.465240 317.456207,415.134460 
	C330.391907,415.221741 342.871429,415.182739 355.497131,415.243439 
	C355.643280,415.343140 355.967651,415.484558 355.967651,415.484558 
z"/>
<path fill="#1E1B39" opacity="1.000000" stroke="none" 
	d="
M355.561951,728.870483 
	C355.699280,741.955872 355.836609,755.041260 355.996979,768.542725 
	C344.881683,768.976196 333.739807,768.836243 322.606812,769.088745 
	C318.173706,769.189209 316.880554,767.530457 316.909332,763.257935 
	C317.069733,739.484863 317.004028,715.710205 317.502350,691.468018 
	C330.407776,690.998779 342.826508,690.997559 355.417664,691.207092 
	C355.714874,691.550171 355.839630,691.682434 355.763489,692.252686 
	C355.562378,704.750610 355.562164,716.810547 355.561951,728.870483 
z"/>
<path fill="#222034" opacity="1.000000" stroke="none" 
	d="
M632.466492,691.998291 
	C631.996704,682.062134 632.051086,672.126221 631.955994,662.191711 
	C631.932434,659.730286 631.424255,657.273499 631.547485,654.402771 
	C657.297546,653.994019 682.638977,653.997009 708.036377,654.020020 
	C708.092224,654.040100 708.202942,654.082947 708.202942,654.082947 
	C708.164795,666.409424 708.126648,678.735962 708.081543,691.530884 
	C683.028259,691.999268 657.981873,691.999146 632.466492,691.998291 
z"/>
<path fill="#134B8F" opacity="1.000000" stroke="none" 
	d="
M632.437134,573.988770 
	C632.088806,561.509949 632.212402,549.043762 632.587219,536.241638 
	C653.625366,535.892578 674.412354,535.917175 695.199036,535.834229 
	C699.335144,535.817749 703.469727,535.390076 708.064819,535.190857 
	C708.524597,535.229736 708.925720,535.446533 708.765259,536.034363 
	C708.467346,541.737549 708.170776,546.854736 708.231567,551.967712 
	C708.311707,558.712402 708.672363,565.453735 708.912476,572.196533 
	C708.741455,572.630737 708.570496,573.065002 708.303223,573.837952 
	C683.107666,574.118286 658.008362,574.059814 632.437134,573.988770 
z"/>
<path fill="#222034" opacity="1.000000" stroke="none" 
	d="
M355.245270,690.996338 
	C342.826508,690.997559 330.407776,690.998779 317.527802,691.000000 
	C316.712280,664.538879 316.313904,638.078247 316.024170,611.616394 
	C315.898285,600.119507 316.120758,588.618469 315.957367,577.122498 
	C315.787354,565.157837 315.290497,553.198059 315.078033,541.233643 
	C315.048218,539.554932 315.823517,537.861938 316.620270,536.091064 
	C317.054962,546.903198 317.076538,557.799988 317.155029,568.696472 
	C317.167999,570.492859 317.430725,572.287415 317.784058,574.894714 
	C317.990234,600.809509 317.990356,625.912415 318.017761,651.422363 
	C319.635742,652.552063 321.213928,653.867615 322.819336,653.901733 
	C333.625702,654.131653 344.437836,654.089722 355.309235,654.592834 
	C355.328674,667.031982 355.286957,679.014160 355.245270,690.996338 
z"/>
<path fill="#242424" opacity="1.000000" stroke="none" 
	d="
M593.629150,415.933411 
	C592.898376,416.260590 592.330505,416.102081 591.506653,415.506348 
	C591.286194,403.939789 591.275635,392.810059 591.388306,381.681519 
	C591.418030,378.748413 590.871826,377.069275 587.301331,377.091858 
	C562.218079,377.250580 537.133606,377.235199 512.009216,377.023590 
	C511.740692,376.530243 511.512573,376.288818 511.284424,376.047363 
	C511.361664,375.497223 511.438904,374.947083 511.714081,374.199249 
	C535.704102,374.027954 559.496216,374.031525 583.288086,374.117371 
	C585.581421,374.125641 588.170471,374.083679 590.076477,375.094330 
	C591.774475,375.994720 593.781128,378.298798 593.819275,380.023895 
	C594.080383,391.825867 593.858459,403.638550 593.629150,415.933411 
z"/>
<path fill="#D1D1D1" opacity="1.000000" stroke="none" 
	d="
M633.047913,356.224060 
	C637.773743,357.981323 637.904785,362.283508 637.949280,366.356110 
	C638.086670,378.925507 637.932495,391.497986 638.044067,404.067871 
	C638.074585,407.506042 638.640991,410.939453 638.962524,414.814087 
	C636.903687,415.317627 634.843750,415.382141 632.309204,414.903900 
	C631.742981,396.597900 631.651306,378.834625 631.899841,360.897644 
	C632.467285,359.504456 632.694580,358.284973 632.921814,357.065521 
	C632.947876,356.878265 632.973999,356.690979 633.047913,356.224060 
z"/>
<path fill="#242424" opacity="1.000000" stroke="none" 
	d="
M631.559692,361.071350 
	C631.651306,378.834625 631.742981,396.597900 631.865967,414.851685 
	C628.160156,416.686829 629.080627,413.697662 629.066345,412.062622 
	C628.975098,401.589722 629.021973,391.115631 629.017395,380.641937 
	C629.011475,367.009521 628.999939,353.377106 629.042847,339.260193 
	C629.303284,338.758057 629.511658,338.740356 630.048340,339.032776 
	C630.516602,339.489685 630.594421,339.664276 630.610107,339.866638 
	C630.743164,345.261566 630.876160,350.656464 630.986755,356.865265 
	C631.162781,358.809875 631.361267,359.940613 631.559692,361.071350 
z"/>
<path fill="#B5B5B5" opacity="1.000000" stroke="none" 
	d="
M511.406616,243.435532 
	C512.027832,244.781693 512.926208,246.578964 512.932251,248.379227 
	C513.023254,275.479523 512.948425,302.580475 513.085510,329.680420 
	C513.097107,331.974579 514.342102,334.262482 515.050537,336.823212 
	C514.003418,337.638977 512.919800,338.184875 511.446289,338.990051 
	C511.085876,322.115387 511.109131,304.981415 511.146729,287.847443 
	C511.178894,273.194275 511.227478,258.541168 511.406616,243.435532 
z"/>
<path fill="#171527" opacity="1.000000" stroke="none" 
	d="
M511.733887,768.110718 
	C535.938965,767.983093 559.931030,767.982300 583.923096,768.018555 
	C585.734009,768.021301 587.544556,768.288086 589.671997,768.696899 
	C588.758240,769.301575 587.528381,769.935242 586.297058,769.938049 
	C562.074707,769.994263 537.852112,769.979858 513.629578,769.960632 
	C512.981628,769.960083 512.333740,769.745117 511.369934,769.375610 
	C511.209625,768.829651 511.365234,768.538269 511.733887,768.110718 
z"/>
<path fill="#131122" opacity="1.000000" stroke="none" 
	d="
M354.793427,373.989594 
	C355.459961,374.475037 355.636536,374.971893 355.587921,375.849243 
	C355.092377,376.452240 354.968842,376.738281 354.524078,377.088318 
	C341.776520,377.243011 329.497009,377.397217 317.166199,377.129028 
	C317.068237,376.426819 317.021545,376.147034 316.974884,375.867249 
	C318.662109,375.255035 320.341278,374.139618 322.037842,374.112579 
	C332.790924,373.941376 343.547791,374.010895 354.793427,373.989594 
z"/>
<path fill="#242424" opacity="1.000000" stroke="none" 
	d="
M631.589539,454.853943 
	C619.911804,455.286774 608.258301,455.649963 596.602173,455.789948 
	C595.455261,455.803711 594.291931,454.448883 593.110840,453.338318 
	C603.881531,452.986603 614.677979,452.990997 625.473267,453.100006 
	C627.245544,453.117859 629.013123,453.595703 631.085938,454.217285 
	C631.388977,454.573578 631.613037,454.721710 631.589539,454.853943 
z"/>
<path fill="#171527" opacity="1.000000" stroke="none" 
	d="
M709.232056,572.085327 
	C708.672363,565.453735 708.311707,558.712402 708.231567,551.967712 
	C708.170776,546.854736 708.467346,541.737549 708.908569,536.211792 
	C709.799255,536.849487 710.882568,537.891357 710.896057,538.946716 
	C711.023926,548.999573 711.008789,559.055176 710.907410,569.108704 
	C710.897705,570.068237 710.024170,571.019165 709.232056,572.085327 
z"/>
<path fill="#222034" opacity="1.000000" stroke="none" 
	d="
M316.642029,376.095856 
	C317.021545,376.147034 317.068237,376.426819 317.147858,377.553772 
	C317.120544,390.603333 317.060303,402.805725 317.000061,415.008118 
	C317.007324,415.465240 317.014557,415.922333 317.007629,416.723389 
	C316.322540,415.661804 315.090332,414.264496 315.069672,412.849518 
	C314.909515,401.877167 314.942322,390.901031 315.042603,379.927185 
	C315.053619,378.722504 315.867584,377.525208 316.642029,376.095856 
z"/>
<path fill="#171527" opacity="1.000000" stroke="none" 
	d="
M708.271362,651.998230 
	C708.480530,652.656311 708.592407,653.300964 708.453613,654.014282 
	C708.202942,654.082947 708.092224,654.040100 708.044678,653.683594 
	C707.990784,652.878174 707.984314,652.429260 707.977905,651.980408 
	C707.977905,651.980408 708.174133,651.984863 708.271362,651.998230 
z"/>
<path fill="#525069" opacity="1.000000" stroke="none" 
	d="
M708.344666,455.659546 
	C707.736450,455.707245 707.078979,455.519073 706.534180,455.016846 
	C707.196350,454.943085 707.745911,455.183380 708.344666,455.659546 
z"/>
<path fill="#4A485B" opacity="1.000000" stroke="none" 
	d="
M595.059753,338.240387 
	C595.132629,337.991699 595.317444,337.868744 595.781616,337.928925 
	C595.764526,338.196777 595.468140,338.281464 595.059753,338.240387 
z"/>
<path fill="#252338" opacity="1.000000" stroke="none" 
	d="
M472.994476,265.229980 
	C473.014801,287.689514 472.931549,309.675476 473.137787,331.658722 
	C473.181702,336.337616 471.862427,338.133575 466.934387,338.087311 
	C444.618164,337.877777 422.298096,337.894989 399.981415,338.077881 
	C395.337158,338.115936 393.956665,336.494965 393.996246,331.962799 
	C394.191132,309.646240 394.207092,287.326538 394.038727,265.009796 
	C394.005615,260.625366 395.505920,259.141724 399.782043,259.163666 
	C422.432739,259.279968 445.084869,259.300751 467.735077,259.145294 
	C472.003082,259.116028 473.516296,260.749146 472.994476,265.229980 
M470.007324,323.478088 
	C470.006683,316.487579 469.858185,309.492676 470.067413,302.508453 
	C470.172943,298.986450 468.883118,297.920441 465.438599,297.939575 
	C444.134857,298.057953 422.829712,298.061066 401.526031,297.937500 
	C398.030762,297.917236 396.869843,299.079468 396.938171,302.547516 
	C397.118469,311.698212 397.179840,320.860107 396.914215,330.006622 
	C396.797577,334.023682 398.181152,335.118652 402.068756,335.084808 
	C421.207977,334.918396 440.349457,335.009583 459.490143,335.009735 
	C470.007294,335.009827 470.007294,335.009766 470.007324,323.478088 
z"/>
<path fill="#4A485B" opacity="1.000000" stroke="none" 
	d="
M354.992126,377.087830 
	C354.968842,376.738281 355.092377,376.452240 355.577393,376.123322 
	C407.292603,376.017700 458.793121,376.018463 510.789062,376.033295 
	C511.512573,376.288818 511.740692,376.530243 511.987183,377.258972 
	C512.005554,377.746216 511.663666,378.075623 511.663666,378.075623 
	C461.504578,378.034485 411.345459,378.014923 361.186554,377.902588 
	C357.925232,377.895264 356.854126,379.022156 356.850433,382.256012 
	C356.838043,393.063843 356.568085,403.871399 356.182251,415.081787 
	C355.967651,415.484558 355.643280,415.343140 355.419189,414.769379 
	C355.127441,401.826355 355.059784,389.457092 354.992126,377.087830 
z"/>
<path fill="#ABABAB" opacity="1.000000" stroke="none" 
	d="
M631.899902,360.897644 
	C631.361267,359.940613 631.162781,358.809875 631.050293,357.328064 
	C631.533997,356.989746 631.931763,357.002533 632.625610,357.040405 
	C632.694580,358.284973 632.467285,359.504456 631.899902,360.897644 
z"/>
<path fill="#010101" opacity="1.000000" stroke="none" 
	d="
M630.671875,339.652466 
	C630.594421,339.664276 630.516602,339.489685 630.252930,339.270569 
	C630.129272,339.198303 630.499390,339.025024 630.703735,339.026489 
	C630.908081,339.027985 630.733582,339.438263 630.671875,339.652466 
z"/>
<path fill="#BFBFBF" opacity="1.000000" stroke="none" 
	d="
M344.994934,827.373291 
	C458.683868,827.001709 572.371399,827.000977 686.527100,826.998657 
	C686.165894,827.986633 685.510681,829.301208 684.454407,829.867004 
	C683.544373,830.354370 682.177429,829.998535 681.012512,829.998535 
	C569.327332,829.996826 457.642151,829.993530 345.491302,829.978271 
	C345.014923,829.225525 345.004242,828.484802 344.994934,827.373291 
z"/>
<path fill="#BFBFBF" opacity="1.000000" stroke="none" 
	d="
M746.995605,810.455688 
	C747.754883,809.688293 748.516846,809.355347 749.546814,808.857483 
	C749.506348,812.960144 749.505371,817.279114 748.802917,821.480835 
	C748.097351,825.701111 742.369690,828.939392 736.081848,828.970947 
	C721.492615,829.044189 706.902100,829.054993 692.314087,828.901855 
	C690.882385,828.886780 689.464478,827.560303 688.003906,826.438110 
	C701.391724,826.021667 714.815735,826.009460 728.239807,825.997620 
	C729.399902,825.996643 730.560059,825.998657 731.720154,825.997375 
	C744.138855,825.983459 746.919495,823.233765 746.995605,810.455688 
z"/>
<path fill="#A4A4A4" opacity="1.000000" stroke="none" 
	d="
M345.491455,820.989075 
	C345.024536,817.937134 345.023682,814.890320 345.051147,811.381592 
	C458.708832,810.902222 572.338135,810.884583 686.422058,810.826477 
	C687.193298,823.441895 687.699890,820.949585 677.152649,820.956116 
	C566.754272,821.024719 456.355865,820.995972 345.491455,820.989075 
z"/>
<path fill="#9D9BB5" opacity="1.000000" stroke="none" 
	d="
M511.704071,378.537720 
	C511.663666,378.075623 512.005554,377.746216 512.027588,377.510864 
	C537.133606,377.235199 562.218079,377.250580 587.301331,377.091858 
	C590.871826,377.069275 591.418030,378.748413 591.388306,381.681519 
	C591.275635,392.810059 591.286194,403.939789 591.207886,415.536469 
	C590.974854,415.982727 590.784546,415.961639 590.310669,415.985107 
	C564.381470,416.003082 538.735779,415.976532 512.637085,415.982117 
	C512.037537,403.676117 511.891022,391.337982 511.704071,378.537720 
z"/>
<path fill="#4A485B" opacity="1.000000" stroke="none" 
	d="
M510.791351,534.051392 
	C511.170990,534.623047 511.155792,535.620850 510.927216,535.672302 
	C509.809204,535.924377 508.634399,536.001892 507.479584,536.002197 
	C458.207977,536.015320 408.936340,536.015198 359.664734,536.001465 
	C358.676666,536.001221 357.688660,535.819702 356.358063,535.508179 
	C357.867065,534.873779 359.718201,534.089600 361.570282,534.087219 
	C411.146179,534.022888 460.722198,534.039001 510.791351,534.051392 
z"/>
<path fill="#3E3D4F" opacity="1.000000" stroke="none" 
	d="
M317.990509,651.015320 
	C317.990356,625.912415 317.990234,600.809509 318.012390,575.211060 
	C320.152435,574.488953 322.270020,574.065369 324.387817,574.064392 
	C412.947205,574.023804 501.506592,574.021118 590.534912,574.004395 
	C591.001709,574.174683 590.999512,574.354248 591.004883,575.264099 
	C591.013977,598.919617 590.909363,621.845703 591.104187,644.769287 
	C591.144348,649.496399 589.742798,651.153931 584.880127,651.107300 
	C562.787659,650.895325 540.691772,650.983826 518.597534,651.061157 
	C516.330261,651.069153 514.065308,651.723267 511.399292,652.033691 
	C509.201752,651.702820 507.404236,651.165649 505.606628,651.165222 
	C455.575592,651.153076 405.544556,651.195374 355.015045,651.177124 
	C342.341217,651.088806 330.165863,651.052063 317.990509,651.015320 
z"/>
<path fill="#1F64B5" opacity="1.000000" stroke="none" 
	d="
M355.910950,729.004761 
	C355.562164,716.810547 355.562378,704.750610 356.149048,692.288330 
	C359.060822,691.913391 361.386139,691.963806 363.711487,691.965088 
	C412.890991,691.991516 462.070465,692.012390 511.477844,691.996460 
	C511.705719,691.958618 512.167664,691.950867 512.167664,691.950867 
	C511.881042,704.310486 511.594421,716.670166 511.313354,729.495239 
	C461.245514,729.980957 411.172089,730.009399 361.098724,729.984192 
	C359.485657,729.983337 357.872864,729.433167 355.910950,729.004761 
z"/>
<path fill="#222034" opacity="1.000000" stroke="none" 
	d="
M591.992676,653.995117 
	C591.994080,666.017944 591.995422,678.040710 591.993530,690.532349 
	C589.547302,691.334106 587.105103,691.949341 584.661255,691.956177 
	C560.799133,692.022888 536.936707,691.987976 512.621033,691.966431 
	C512.167664,691.950867 511.705719,691.958618 511.644470,691.548523 
	C511.519379,678.787781 511.455566,666.437073 511.599854,654.102539 
	C511.808014,654.118591 512.223022,654.056641 512.677490,654.040771 
	C539.418823,654.014954 565.705750,654.005066 591.992676,653.995117 
z"/>
<path fill="#2C2B39" opacity="1.000000" stroke="none" 
	d="
M591.996338,653.997559 
	C565.705750,654.005066 539.418823,654.014954 512.564087,653.720581 
	C511.930603,652.970154 511.864960,652.523865 511.799316,652.077637 
	C514.065308,651.723267 516.330261,651.069153 518.597534,651.061157 
	C540.691772,650.983826 562.787659,650.895325 584.880127,651.107300 
	C589.742798,651.153931 591.144348,649.496399 591.104187,644.769287 
	C590.909363,621.845703 591.013977,598.919617 591.007202,575.533447 
	C604.337402,574.734741 617.672974,574.396912 631.468506,574.096069 
	C631.947449,597.888306 631.961853,621.643433 631.988464,645.398621 
	C631.995728,651.913757 632.070862,651.985718 638.769287,651.987488 
	C661.528015,651.993652 684.286682,651.987915 707.511658,651.983521 
	C707.984314,652.429260 707.990784,652.878174 707.988831,653.663513 
	C682.638977,653.997009 657.297546,653.994019 631.490112,653.988159 
	C631.024231,653.985352 631.004822,653.991638 630.917786,653.617798 
	C629.452515,652.504700 628.085571,651.150391 626.694153,651.124634 
	C616.641663,650.938843 606.580994,650.896667 596.531616,651.152466 
	C594.996338,651.191528 593.506165,653.001831 591.995117,653.992859 
	C591.995117,653.992859 592.000000,654.000000 591.996338,653.997559 
z"/>
<path fill="#222034" opacity="1.000000" stroke="none" 
	d="
M592.409180,653.932129 
	C593.506165,653.001831 594.996338,651.191528 596.531616,651.152466 
	C606.580994,650.896667 616.641663,650.938843 626.694153,651.124634 
	C628.085571,651.150391 629.452515,652.504700 630.921570,653.610901 
	C618.282654,653.942322 605.552979,653.906799 592.409180,653.932129 
z"/>
<path fill="#9D9BB5" opacity="1.000000" stroke="none" 
	d="
M354.524078,377.088318 
	C355.059784,389.457092 355.127441,401.826355 355.273041,414.669678 
	C342.871429,415.182739 330.391907,415.221741 317.456238,415.134460 
	C317.060303,402.805725 317.120544,390.603333 317.199158,377.976166 
	C329.497009,377.397217 341.776520,377.243011 354.524078,377.088318 
z"/>
<path fill="#2E80E2" opacity="1.000000" stroke="none" 
	d="
M511.391724,654.086426 
	C511.455566,666.437073 511.519379,678.787781 511.416595,691.586426 
	C462.070465,692.012390 412.890991,691.991516 363.711487,691.965088 
	C361.386139,691.963806 359.060822,691.913391 356.349945,691.850281 
	C355.839630,691.682434 355.714874,691.550171 355.417664,691.207092 
	C355.286957,679.014160 355.328674,667.031982 355.443542,654.654907 
	C355.516693,654.260010 355.813385,654.244324 356.210419,654.167114 
	C408.202209,654.088684 459.796967,654.087585 511.391724,654.086426 
z"/>
<path fill="#2C2B39" opacity="1.000000" stroke="none" 
	d="
M318.017761,651.422363 
	C330.165863,651.052063 342.341217,651.088806 354.940094,651.555542 
	C355.513519,652.738525 355.663452,653.491394 355.813385,654.244324 
	C355.813385,654.244324 355.516693,654.260010 355.382385,654.197937 
	C344.437836,654.089722 333.625702,654.131653 322.819336,653.901733 
	C321.213928,653.867615 319.635742,652.552063 318.017761,651.422363 
z"/>
<path fill="#191828" opacity="1.000000" stroke="none" 
	d="
M470.007324,323.973633 
	C470.007294,335.009766 470.007294,335.009827 459.490143,335.009735 
	C440.349457,335.009583 421.207977,334.918396 402.068756,335.084808 
	C398.181152,335.118652 396.797577,334.023682 396.914215,330.006622 
	C397.179840,320.860107 397.118469,311.698212 396.938171,302.547516 
	C396.869843,299.079468 398.030762,297.917236 401.526031,297.937500 
	C422.829712,298.061066 444.134857,298.057953 465.438599,297.939575 
	C468.883118,297.920441 470.172943,298.986450 470.067413,302.508453 
	C469.858185,309.492676 470.006683,316.487579 470.007324,323.973633 
z"/>
<path fill="#1F64B5" opacity="1.000000" stroke="none" 
	d="
M356.210419,654.167114 
	C355.663452,653.491394 355.513519,652.738525 355.438568,651.607117 
	C405.544556,651.195374 455.575592,651.153076 505.606628,651.165222 
	C507.404236,651.165649 509.201752,651.702820 511.399292,652.033691 
	C511.864960,652.523865 511.930603,652.970154 512.109619,653.736511 
	C512.223022,654.056641 511.808014,654.118591 511.599854,654.102539 
	C459.796967,654.087585 408.202209,654.088684 356.210419,654.167114 
z"/>
</svg>